<svg width="45" height="45" viewBox="0 0 45 45" fill="none" xmlns="http://www.w3.org/2000/svg">
<path d="M22.5 22.5C25.4837 22.5 28.3452 21.3147 30.455 19.205C32.5647 17.0952 33.75 14.2337 33.75 11.25C33.75 8.26631 32.5647 5.40483 30.455 3.29505C28.3452 1.18526 25.4837 0 22.5 0C19.5163 0 16.6548 1.18526 14.545 3.29505C12.4353 5.40483 11.25 8.26631 11.25 11.25C11.25 14.2337 12.4353 17.0952 14.545 19.205C16.6548 21.3147 19.5163 22.5 22.5 22.5ZM14.0625 27.3516C7.55859 29.2588 2.8125 35.2705 2.8125 42.3896C2.8125 43.8311 3.98145 45 5.42285 45H39.5771C41.0186 45 42.1875 43.8311 42.1875 42.3896C42.1875 35.2705 37.4414 29.2588 30.9375 27.3516V31.8164C33.3633 32.4404 35.1562 34.6465 35.1562 37.2656V40.7812C35.1562 41.5547 34.5234 42.1875 33.75 42.1875H32.3438C31.5703 42.1875 30.9375 41.5547 30.9375 40.7812C30.9375 40.0078 31.5703 39.375 32.3438 39.375V37.2656C32.3438 35.71 31.0869 34.4531 29.5312 34.4531C27.9756 34.4531 26.7188 35.71 26.7188 37.2656V39.375C27.4922 39.375 28.125 40.0078 28.125 40.7812C28.125 41.5547 27.4922 42.1875 26.7188 42.1875H25.3125C24.5391 42.1875 23.9062 41.5547 23.9062 40.7812V37.2656C23.9062 34.6465 25.6992 32.4404 28.125 31.8164V26.7979C27.5977 26.7451 27.0615 26.7188 26.5166 26.7188H18.4834C17.9385 26.7188 17.4023 26.7451 16.875 26.7979V32.5459C18.9053 33.1523 20.3906 35.0332 20.3906 37.2656C20.3906 39.9814 18.1846 42.1875 15.4688 42.1875C12.7529 42.1875 10.5469 39.9814 10.5469 37.2656C10.5469 35.0332 12.0322 33.1523 14.0625 32.5459V27.3516ZM15.4688 39.375C16.0282 39.375 16.5647 39.1528 16.9603 38.7572C17.3559 38.3616 17.5781 37.8251 17.5781 37.2656C17.5781 36.7062 17.3559 36.1697 16.9603 35.7741C16.5647 35.3785 16.0282 35.1562 15.4688 35.1562C14.9093 35.1562 14.3728 35.3785 13.9772 35.7741C13.5816 36.1697 13.3594 36.7062 13.3594 37.2656C13.3594 37.8251 13.5816 38.3616 13.9772 38.7572C14.3728 39.1528 14.9093 39.375 15.4688 39.375Z" fill="black"/>
</svg>
