<svg width="242" height="225" viewBox="0 0 242 225" fill="none" xmlns="http://www.w3.org/2000/svg">
<rect width="242" height="225" fill="white"/>
<g clip-path="url(#clip0_91_3040)">
<path d="M180.656 132.071C183.998 126.124 186.505 119.328 186.505 111.683C186.505 90.4462 169.795 73.4566 148.907 73.4566C128.02 73.4566 111.309 90.4462 111.309 111.683C111.309 132.92 128.02 149.91 148.907 149.91C156.427 149.91 163.111 147.361 168.959 143.963L193.189 168.598L204.886 156.705L180.656 132.071ZM148.907 132.92C137.21 132.92 128.02 123.576 128.02 111.683C128.02 99.7904 137.21 90.4462 148.907 90.4462C160.604 90.4462 169.795 99.7904 169.795 111.683C169.795 123.576 160.604 132.92 148.907 132.92ZM147 160.5C143.658 163.898 135.539 171.996 132.197 175.394L119.664 186.437L107.132 175.394C64.5212 136.318 36.114 109.984 36.114 77.704C36.114 51.3701 56.1661 30.9827 82.0668 30.9827C96.2703 30.9827 110.474 37.7785 119.664 48.8217C128.855 37.7785 143.059 30.9827 157.262 30.9827C183.163 30.9827 203.215 51.3701 203.215 77.704C203.215 83.6503 198 100 193.189 107.5C185.669 85.4136 174 70 148.907 68C118.829 68 100.5 81.1019 100.5 111.683C100.5 139.716 119.664 153.5 147 160.5Z" fill="#244A8B"/>
<ellipse cx="148" cy="111.5" rx="39" ry="38.5" fill="white"/>
<path d="M140.521 120.396C136.54 116.381 136.515 109.89 140.466 105.972C144.418 102.054 150.908 102.133 154.889 106.148C158.871 110.162 158.895 116.653 154.944 120.571C150.993 124.49 144.503 124.41 140.521 120.396ZM175.158 126.587C180.524 115.475 178.668 101.389 169.257 91.8996C157.313 79.8549 137.842 79.6174 125.989 91.372C114.135 103.127 113.898 123.159 125.842 135.204C135.253 144.693 149.633 146.108 160.79 140.835L173.096 153.245L158.728 167.493L173.206 182.093L187.574 167.845L198.432 178.794L205.616 171.67L212.8 164.546L175.158 126.587Z" fill="#244A8B"/>
</g>
<defs>
<clipPath id="clip0_91_3040">
<rect width="185" height="190" fill="white" transform="translate(28 17)"/>
</clipPath>
</defs>
</svg>
