<svg width="226" height="80" viewBox="0 0 226 80" fill="none" xmlns="http://www.w3.org/2000/svg">
<path d="M88.6641 33.9355V35H81.2812V33.9355H82.2188C82.5964 33.9355 82.8828 33.8639 83.0781 33.7207C83.2799 33.571 83.3809 33.2389 83.3809 32.7246V29.9414L79.6797 22.8418C79.4909 22.4642 79.3053 22.194 79.123 22.0312C78.9408 21.862 78.6543 21.7773 78.2637 21.7773H78V20.7227H84.6992V21.7773H84.3574C83.9538 21.7773 83.651 21.8587 83.4492 22.0215C83.2539 22.1842 83.1562 22.4023 83.1562 22.6758C83.1562 22.8451 83.1855 23.0306 83.2441 23.2324C83.3092 23.4277 83.3809 23.61 83.459 23.7793L84.9434 26.7188C85.1517 27.1419 85.321 27.5163 85.4512 27.8418C85.5879 28.1673 85.7116 28.4863 85.8223 28.7988C85.959 28.4473 86.1152 28.0664 86.291 27.6562C86.4733 27.2396 86.6751 26.8066 86.8965 26.3574L88.0586 23.9648C88.2018 23.6719 88.293 23.4277 88.332 23.2324C88.3776 23.0306 88.4004 22.8743 88.4004 22.7637C88.4004 22.1061 87.9609 21.7773 87.082 21.7773H86.623V20.7227H91.8574V21.7773H91.4766C91.1055 21.7773 90.8288 21.901 90.6465 22.1484C90.4642 22.3958 90.2363 22.793 89.9629 23.3398L86.5645 29.9609V32.6953C86.5645 33.2227 86.6589 33.5612 86.8477 33.7109C87.043 33.8607 87.3197 33.9355 87.6777 33.9355H88.6641ZM112.506 27.8418C112.506 28.9421 112.359 29.9447 112.066 30.8496C111.773 31.7546 111.337 32.5293 110.758 33.1738C110.185 33.8184 109.479 34.3164 108.639 34.668C107.799 35.0195 106.835 35.1953 105.748 35.1953C104.609 35.1953 103.613 35.0195 102.76 34.668C101.913 34.3164 101.21 33.8184 100.65 33.1738C100.09 32.5293 99.6706 31.7546 99.3906 30.8496C99.1107 29.9382 98.9707 28.929 98.9707 27.8223C98.9707 26.7155 99.1107 25.7129 99.3906 24.8145C99.6706 23.9095 100.094 23.138 100.66 22.5C101.22 21.862 101.923 21.3704 102.77 21.0254C103.622 20.6738 104.622 20.498 105.768 20.498C106.848 20.498 107.805 20.6738 108.639 21.0254C109.479 21.3704 110.185 21.862 110.758 22.5C111.923 23.8151 112.506 25.5957 112.506 27.8418ZM102.33 27.8418C102.33 28.7988 102.392 29.6517 102.516 30.4004C102.639 31.1426 102.838 31.7741 103.111 32.2949C103.385 32.8092 103.736 33.2064 104.166 33.4863C104.602 33.7598 105.13 33.8965 105.748 33.8965C106.373 33.8965 106.9 33.7598 107.33 33.4863C107.766 33.2064 108.118 32.8092 108.385 32.2949C108.652 31.7741 108.844 31.1426 108.961 30.4004C109.085 29.6517 109.146 28.7988 109.146 27.8418C109.146 26.8848 109.085 26.0319 108.961 25.2832C108.844 24.528 108.652 23.8932 108.385 23.3789C108.118 22.8581 107.77 22.4642 107.34 22.1973C106.91 21.9303 106.386 21.7969 105.768 21.7969C104.557 21.7969 103.671 22.3242 103.111 23.3789C102.838 23.8932 102.639 24.528 102.516 25.2832C102.392 26.0319 102.33 26.8848 102.33 27.8418ZM127.07 33.9355V35H120.166V33.9355H121.006C121.351 33.9355 121.608 33.8477 121.777 33.6719C121.947 33.4896 122.031 33.1445 122.031 32.6367V23.0859C122.031 22.5781 121.947 22.2363 121.777 22.0605C121.608 21.8783 121.351 21.7871 121.006 21.7871H120.166V20.7227H127.07V21.7871H126.23C125.892 21.7871 125.635 21.875 125.459 22.0508C125.29 22.2266 125.205 22.5716 125.205 23.0859V32.6367C125.205 33.151 125.29 33.4961 125.459 33.6719C125.635 33.8477 125.892 33.9355 126.23 33.9355H127.07ZM93.8203 58.9355V60H86.916V58.9355H87.7754C88.1204 58.9355 88.3776 58.8477 88.5469 58.6719C88.7161 58.4896 88.8008 58.1445 88.8008 57.6367V53.1641H83.5762V57.6367C83.5762 58.1445 83.6641 58.4896 83.8398 58.6719C84.0156 58.8477 84.2695 58.9355 84.6016 58.9355H85.4609V60H78.5566V58.9355H79.3965C79.7415 58.9355 79.9987 58.8477 80.168 58.6719C80.3372 58.4896 80.4219 58.1445 80.4219 57.6367V48.0078C80.4219 47.5326 80.3307 47.2103 80.1484 47.041C79.9727 46.8717 79.722 46.7871 79.3965 46.7871H78.5566V45.7227H85.4609V46.7871H84.6016C84.2695 46.7871 84.0156 46.8783 83.8398 47.0605C83.6641 47.2363 83.5762 47.5781 83.5762 48.0859V51.9434H88.8008V48.0859C88.8008 47.5781 88.7161 47.2363 88.5469 47.0605C88.3776 46.8783 88.1204 46.7871 87.7754 46.7871H86.916V45.7227H93.8203V46.7871H92.9805C92.6419 46.7871 92.388 46.8783 92.2188 47.0605C92.0495 47.2363 91.9648 47.5781 91.9648 48.0859V57.7441C91.9648 58.2129 92.0527 58.5286 92.2285 58.6914C92.4108 58.8542 92.6615 58.9355 92.9805 58.9355H93.8203ZM115.025 52.8418C115.025 53.9421 114.879 54.9447 114.586 55.8496C114.293 56.7546 113.857 57.5293 113.277 58.1738C112.704 58.8184 111.998 59.3164 111.158 59.668C110.318 60.0195 109.355 60.1953 108.268 60.1953C107.128 60.1953 106.132 60.0195 105.279 59.668C104.433 59.3164 103.73 58.8184 103.17 58.1738C102.61 57.5293 102.19 56.7546 101.91 55.8496C101.63 54.9382 101.49 53.929 101.49 52.8223C101.49 51.7155 101.63 50.7129 101.91 49.8145C102.19 48.9095 102.613 48.138 103.18 47.5C103.74 46.862 104.443 46.3704 105.289 46.0254C106.142 45.6738 107.141 45.498 108.287 45.498C109.368 45.498 110.325 45.6738 111.158 46.0254C111.998 46.3704 112.704 46.862 113.277 47.5C114.443 48.8151 115.025 50.5957 115.025 52.8418ZM104.85 52.8418C104.85 53.7988 104.911 54.6517 105.035 55.4004C105.159 56.1426 105.357 56.7741 105.631 57.2949C105.904 57.8092 106.256 58.2064 106.686 58.4863C107.122 58.7598 107.649 58.8965 108.268 58.8965C108.893 58.8965 109.42 58.7598 109.85 58.4863C110.286 58.2064 110.637 57.8092 110.904 57.2949C111.171 56.7741 111.363 56.1426 111.48 55.4004C111.604 54.6517 111.666 53.7988 111.666 52.8418C111.666 51.8848 111.604 51.0319 111.48 50.2832C111.363 49.528 111.171 48.8932 110.904 48.3789C110.637 47.8581 110.289 47.4642 109.859 47.1973C109.43 46.9303 108.906 46.7969 108.287 46.7969C107.076 46.7969 106.191 47.3242 105.631 48.3789C105.357 48.8932 105.159 49.528 105.035 50.2832C104.911 51.0319 104.85 51.8848 104.85 52.8418ZM127.412 60.1953C126.514 60.1953 125.765 60.1107 125.166 59.9414C124.574 59.7721 124.095 59.554 123.73 59.2871C123.372 59.0202 123.115 58.7207 122.959 58.3887C122.803 58.0566 122.725 57.7279 122.725 57.4023C122.725 56.7448 122.949 56.2695 123.398 55.9766C123.848 55.6836 124.378 55.5371 124.99 55.5371C124.99 56.11 125.059 56.6146 125.195 57.0508C125.332 57.4805 125.521 57.8385 125.762 58.125C126.243 58.7109 126.898 59.0039 127.725 59.0039C128.473 59.0039 129.072 58.8021 129.521 58.3984C129.977 57.9948 130.205 57.474 130.205 56.8359C130.205 56.1914 129.932 55.6445 129.385 55.1953C129.105 54.9674 128.753 54.7526 128.33 54.5508C127.913 54.349 127.425 54.1309 126.865 53.8965C125.479 53.3236 124.505 52.7018 123.945 52.0312C123.652 51.6797 123.441 51.2988 123.311 50.8887C123.187 50.4785 123.125 50.0293 123.125 49.541C123.125 48.929 123.249 48.3757 123.496 47.8809C123.743 47.3861 124.085 46.9629 124.521 46.6113C125.42 45.8822 126.589 45.5176 128.027 45.5176C128.763 45.5176 129.398 45.5794 129.932 45.7031C130.465 45.8203 130.908 45.9831 131.26 46.1914C131.943 46.6081 132.285 47.1582 132.285 47.8418C132.285 48.3561 132.064 48.763 131.621 49.0625C131.178 49.3555 130.579 49.502 129.824 49.502C129.824 49.0853 129.749 48.6654 129.6 48.2422C129.45 47.8125 129.219 47.4544 128.906 47.168C128.594 46.8815 128.193 46.7383 127.705 46.7383C127.152 46.7383 126.683 46.8978 126.299 47.2168C125.921 47.5358 125.732 47.9915 125.732 48.584C125.732 48.8639 125.778 49.1276 125.869 49.375C125.967 49.6224 126.136 49.8633 126.377 50.0977C126.624 50.3385 126.96 50.5794 127.383 50.8203C127.806 51.0547 128.356 51.3086 129.033 51.582C130.381 52.1289 131.361 52.7279 131.973 53.3789C132.279 53.7174 132.5 54.0885 132.637 54.4922C132.78 54.8893 132.852 55.332 132.852 55.8203C132.852 57.1224 132.36 58.1738 131.377 58.9746C130.902 59.3587 130.329 59.6582 129.658 59.873C128.994 60.0879 128.245 60.1953 127.412 60.1953ZM152.006 49.9609C152.006 50.5599 151.902 51.1361 151.693 51.6895C151.485 52.2428 151.146 52.7311 150.678 53.1543C150.209 53.5775 149.6 53.916 148.852 54.1699C148.103 54.4173 147.188 54.541 146.107 54.541H145.424V57.7441C145.424 58.2194 145.515 58.5384 145.697 58.7012C145.886 58.8574 146.15 58.9355 146.488 58.9355H147.709V60H140.404V58.9355H141.244C141.589 58.9355 141.846 58.8477 142.016 58.6719C142.185 58.4896 142.27 58.1445 142.27 57.6367V47.998C142.27 47.5228 142.182 47.2005 142.006 47.0312C141.837 46.862 141.583 46.7773 141.244 46.7773H140.404V45.7227H146.547C147.471 45.7227 148.275 45.8203 148.959 46.0156C149.643 46.2109 150.212 46.4909 150.668 46.8555C151.56 47.5911 152.006 48.6263 152.006 49.9609ZM146.205 46.9043H145.424V53.3789H145.912C146.895 53.3789 147.598 53.1217 148.021 52.6074C148.438 52.0866 148.646 51.2305 148.646 50.0391C148.646 48.9518 148.464 48.1608 148.1 47.666C147.709 47.1582 147.077 46.9043 146.205 46.9043ZM166.082 58.9355V60H159.178V58.9355H160.018C160.363 58.9355 160.62 58.8477 160.789 58.6719C160.958 58.4896 161.043 58.1445 161.043 57.6367V48.0859C161.043 47.5781 160.958 47.2363 160.789 47.0605C160.62 46.8783 160.363 46.7871 160.018 46.7871H159.178V45.7227H166.082V46.7871H165.242C164.904 46.7871 164.646 46.875 164.471 47.0508C164.301 47.2266 164.217 47.5716 164.217 48.0859V57.6367C164.217 58.151 164.301 58.4961 164.471 58.6719C164.646 58.8477 164.904 58.9355 165.242 58.9355H166.082ZM182.365 46.9434H180.764V57.6367C180.764 58.1445 180.848 58.4896 181.018 58.6719C181.193 58.8477 181.451 58.9355 181.789 58.9355H182.629V60H175.725V58.9355H176.564C176.91 58.9355 177.167 58.8477 177.336 58.6719C177.505 58.4896 177.59 58.1445 177.59 57.6367V46.9434H175.988C175.415 46.9434 175.008 47.0605 174.768 47.2949C174.527 47.5293 174.38 47.8841 174.328 48.3594L174.191 49.5996H172.844L172.951 45.7227H185.412L185.51 49.5996H184.172L184.025 48.3594C183.973 47.8841 183.827 47.5293 183.586 47.2949C183.352 47.0605 182.945 46.9434 182.365 46.9434ZM201.637 57.3047L200.934 55.3027H196.07L195.494 57.0215C195.442 57.1842 195.387 57.3763 195.328 57.5977C195.276 57.8125 195.25 58.0013 195.25 58.1641C195.25 58.4115 195.341 58.6035 195.523 58.7402C195.706 58.8704 195.917 58.9355 196.158 58.9355H196.998V60H191.793V58.9355H192.037C192.441 58.9355 192.757 58.8281 192.984 58.6133C193.212 58.3984 193.43 58.0208 193.639 57.4805L197.975 45.7227H200.719L204.898 57.5C205.074 58.0013 205.279 58.3659 205.514 58.5938C205.748 58.8216 206.048 58.9355 206.412 58.9355H206.773V60H200.172V58.9355H200.953C201.174 58.9355 201.373 58.8737 201.549 58.75C201.725 58.6198 201.812 58.4245 201.812 58.1641C201.812 58.0013 201.793 57.8451 201.754 57.6953C201.715 57.5456 201.676 57.4154 201.637 57.3047ZM196.49 54.082H200.533L199.479 50.8008C199.4 50.5469 199.306 50.2376 199.195 49.873C199.085 49.502 198.977 49.1309 198.873 48.7598C198.775 48.3822 198.697 48.0632 198.639 47.8027C198.574 48.0371 198.479 48.3333 198.355 48.6914C198.238 49.0495 198.115 49.4108 197.984 49.7754C197.861 50.14 197.757 50.4492 197.672 50.7031L196.49 54.082ZM225.195 55.5371L225.049 60H213.33V58.9355H214.17C214.515 58.9355 214.772 58.8477 214.941 58.6719C215.111 58.4896 215.195 58.1445 215.195 57.6367V48.0762C215.195 47.5684 215.111 47.2266 214.941 47.0508C214.772 46.8685 214.515 46.7773 214.17 46.7773H213.33V45.7227H220.234V46.7773H219.395C219.069 46.7773 218.815 46.862 218.633 47.0312C218.457 47.194 218.369 47.5163 218.369 47.998V58.7793H222.09C222.559 58.7793 222.923 58.6328 223.184 58.3398C223.444 58.0404 223.633 57.6074 223.75 57.041L224.072 55.5371H225.195Z" fill="white"/>
<path d="M19 40L48.9998 40.1034" stroke="#0267B5" stroke-width="8" stroke-linecap="round"/>
<path d="M18 19V61" stroke="#0267B5" stroke-width="8" stroke-linecap="round"/>
<path d="M5 42.7833H13.6993L15.1196 45.5468L17.25 39.3695L19.2029 44.0837L20.4457 42.7833H25.0616L27.0145 21L29.3225 54L32.3406 35.1429L34.471 44.4089L36.779 38.3941L39.2645 44.4089L40.5072 42.6207H54" stroke="#FFC288" stroke-width="1.5" stroke-linecap="round"/>
<path opacity="0.8" d="M52 19V61" stroke="#0267B5" stroke-width="8" stroke-linecap="round"/>
<path d="M48.0825 32.0044C45.423 31.8754 42.7635 34.5843 43.0168 37.3094C43.0168 42.0984 49.7288 46.194 52.0084 48C54.5412 46.0651 61 42.0984 61 37.3094C61 34.7133 58.5309 32.0044 55.9343 32.0044C54.3442 32.0044 52.8592 32.7087 52.0084 33.9394C51.1575 32.7087 49.6726 32.0044 48.0825 32.0044Z" fill="#ED0102"/>
<path d="M48.9404 39.8688H55.2726" stroke="white" stroke-linecap="square" stroke-linejoin="round"/>
<path d="M52.1064 36.6439V43.0937" stroke="white" stroke-linecap="square" stroke-linejoin="round"/>
</svg>
