<svg width="71" height="74" viewBox="0 0 71 74" fill="none" xmlns="http://www.w3.org/2000/svg">
<path d="M35.4999 37C32.2458 37 29.46 35.7924 27.1426 33.3771C24.8253 30.9618 23.6666 28.0583 23.6666 24.6667C23.6666 21.275 24.8253 18.3715 27.1426 15.9562C29.46 13.541 32.2458 12.3333 35.4999 12.3333C38.7541 12.3333 41.5399 13.541 43.8572 15.9562C46.1746 18.3715 47.3333 21.275 47.3333 24.6667C47.3333 28.0583 46.1746 30.9618 43.8572 33.3771C41.5399 35.7924 38.7541 37 35.4999 37ZM11.8333 61.6667V53.0333C11.8333 51.2861 12.2652 49.6807 13.129 48.2172C13.9928 46.7536 15.1387 45.6354 16.5666 44.8625C19.6235 43.2694 22.7298 42.0752 25.8853 41.2797C29.0409 40.4842 32.2458 40.0854 35.4999 40.0833C38.7541 40.0813 41.9589 40.4801 45.1145 41.2797C48.2701 42.0793 51.3763 43.2736 54.4333 44.8625C55.8631 45.6333 57.01 46.7516 57.8738 48.2172C58.7376 49.6828 59.1686 51.2882 59.1666 53.0333V61.6667H11.8333Z" fill="#B7C3DA"/>
</svg>
