<svg xmlns="http://www.w3.org/2000/svg" fill="none" viewBox="0 0 48 48" id="Hamburger-Menu-3--Streamline-Plump.svg" height="48" width="48"><desc>Hamburger Menu 3 Streamline Icon: https://streamlinehq.com</desc><g id="hamburger-menu-3--button-parallel-horizontal-lines-menu-navigation-staggered-three-hamburger"><path id="Union" fill="#ffffff" fill-rule="evenodd" d="M29 2.5c-7.8212 0 -12.4704 0.10602 -14.7732 0.18058 -1.7 0.05504 -3.2962 1.23729 -3.562 3.10027C10.5736 6.42069 10.5 7.18652 10.5 8s0.0736 1.57931 0.1648 2.2192c0.2658 1.8629 1.862 3.0452 3.562 3.1002 2.3028 0.0746 6.952 0.1806 14.7732 0.1806 7.8212 0 12.4704 -0.106 14.7732 -0.1806 1.7 -0.055 3.2962 -1.2373 3.562 -3.1002C47.4264 9.57931 47.5 8.81348 47.5 8c0 -0.81348 -0.0736 -1.57931 -0.1648 -2.21915 -0.2658 -1.86298 -1.862 -3.04523 -3.562 -3.10027C41.4704 2.60602 36.8212 2.5 29 2.5Zm-5 16c7.8212 0 12.4704 0.106 14.7732 0.1806 1.7 0.055 3.2962 1.2373 3.562 3.1002 0.0912 0.6399 0.1648 1.4057 0.1648 2.2192 0 0.8135 -0.0736 1.5793 -0.1648 2.2192 -0.2658 1.8629 -1.862 3.0452 -3.562 3.1002 -2.3028 0.0746 -6.952 0.1806 -14.7732 0.1806 -7.8212 0 -12.4704 -0.106 -14.77323 -0.1806 -1.69995 -0.055 -3.29617 -1.2373 -3.56193 -3.1002C5.57356 25.5793 5.5 24.8135 5.5 24c0 -0.8135 0.07356 -1.5793 0.16484 -2.2192 0.26576 -1.8629 1.86198 -3.0452 3.56193 -3.1002C11.5296 18.606 16.1788 18.5 24 18.5ZM4.22677 34.6806C6.52957 34.606 11.1788 34.5 19 34.5s12.4704 0.106 14.7732 0.1806c1.7 0.055 3.2962 1.2373 3.562 3.1002 0.0912 0.6399 0.1648 1.4057 0.1648 2.2192 0 0.8135 -0.0736 1.5793 -0.1648 2.2192 -0.2658 1.8629 -1.862 3.0452 -3.562 3.1002 -2.3028 0.0746 -6.952 0.1806 -14.7732 0.1806 -7.8212 0 -12.47043 -0.106 -14.77323 -0.1806 -1.69995 -0.055 -3.296171 -1.2373 -3.561931 -3.1002C0.573564 41.5793 0.5 40.8135 0.5 40c0 -0.8135 0.073564 -1.5793 0.164839 -2.2192 0.26576 -1.8629 1.861981 -3.0452 3.561931 -3.1002Z" clip-rule="evenodd" stroke-width="1"></path></g></svg>