<svg xmlns="http://www.w3.org/2000/svg" fill="none" viewBox="0 0 48 48" id="Return-Square-2--Streamline-Plump.svg" height="50" width="50"><desc>Return Square 2 Streamline Icon: https://streamlinehq.com</desc><g id="return-square-2--arrow-return-enter-keyboard"><path id="Union" fill="transparent" fill-rule="evenodd" d="M24.0039 1.5c-7.4014 0 -12.5927 0.27808 -15.86429 0.54389l0.12131 1.49319 -0.12132 -1.49319c-3.28785 0.26714 -5.82467 2.80396 -6.09181 6.09181l1.49131 0.12117 -1.49131 -0.12117C1.78198 11.4073 1.50391 16.5986 1.50391 24c0 7.4014 0.27808 12.5927 0.54389 15.8643 0.26713 3.2879 2.80396 5.8247 6.09181 6.0918 3.27159 0.2658 8.46289 0.5439 15.86429 0.5439 7.4014 0 12.5927 -0.2781 15.8643 -0.5439 3.2879 -0.2671 5.8247 -2.8039 6.0918 -6.0918 0.2658 -3.2716 0.5439 -8.4629 0.5439 -15.8643 0 -7.4014 -0.2781 -12.5927 -0.5439 -15.8643 -0.2671 -3.28785 -2.8039 -5.82468 -6.0918 -6.09181C36.5966 1.77808 31.4053 1.5 24.0039 1.5Z" clip-rule="evenodd" stroke-width="1"></path><path id="Union_2" fill="#2859c5" d="m18.4698 27.6672 9.0566 0.1804c3.3109 0 5.6619 -2.3319 5.6619 -5.6159s-2.351 -5.6923 -5.6619 -5.6923h-0.7493c-1.468 0 -2.7276 -1.0658 -2.7672 -2.5333 -0.0045 -0.165 -0.007 -0.3342 -0.007 -0.5062 0 -0.0748 0.0005 -0.148 0.0014 -0.2196C24.0213 11.9252 25.1735 11 26.5288 11h1.3306c5.8861 0 10.9908 4.2945 10.9908 11.2317 0 6.9373 -5.1047 11.5621 -10.9908 11.5621l-9.3906 0.0443c-0.0269 1.0095 -0.0658 1.8221 -0.1086 2.472 -0.0823 1.2487 -1.2691 1.7907 -2.2672 1.0358 -0.7144 -0.5403 -1.6332 -1.2772 -2.7755 -2.2687 -1.641 -1.4243 -2.5901 -2.4984 -3.1308 -3.2221 -0.51199 -0.6852 -0.51192 -1.5573 0.0001 -2.2424 0.5408 -0.7237 1.4898 -1.7977 3.1307 -3.2222 1.1426 -0.9919 2.0615 -1.7289 2.776 -2.2693 0.9979 -0.7548 2.1843 -0.2128 2.2666 1.0357 0.0434 0.6581 0.0827 1.483 0.1097 2.5103Z" stroke-width="1"></path></g></svg>