<svg width="81" height="81" viewBox="0 0 81 81" fill="none" xmlns="http://www.w3.org/2000/svg">
<path d="M54 10.125C54.8951 10.125 55.7536 10.4806 56.3865 11.1135C57.0194 11.7464 57.375 12.6049 57.375 13.5V16.875H64.125C65.8279 16.8745 67.4682 17.5176 68.7169 18.6756C69.9655 19.8335 70.7304 21.4206 70.8581 23.1187L70.875 23.625V64.125C70.8755 65.8279 70.2324 67.4682 69.0744 68.7169C67.9165 69.9655 66.3294 70.7304 64.6312 70.8581L64.125 70.875H16.875C15.1721 70.8755 13.5318 70.2324 12.2832 69.0744C11.0345 67.9165 10.2696 66.3294 10.1419 64.6312L10.125 64.125V23.625C10.1245 21.9221 10.7676 20.2818 11.9256 19.0332C13.0835 17.7845 14.6706 17.0196 16.3688 16.8919L16.875 16.875H23.625V13.5C23.625 12.6049 23.9806 11.7464 24.6135 11.1135C25.2465 10.4806 26.1049 10.125 27 10.125C27.8951 10.125 28.7535 10.4806 29.3865 11.1135C30.0194 11.7464 30.375 12.6049 30.375 13.5V16.875H50.625V13.5C50.625 12.6049 50.9806 11.7464 51.6135 11.1135C52.2465 10.4806 53.1049 10.125 54 10.125ZM50.031 31.6541L35.7142 45.9709L30.9386 41.1986C30.3021 40.5838 29.4496 40.2437 28.5646 40.2514C27.6797 40.259 26.8332 40.614 26.2075 41.2397C25.5817 41.8655 25.2268 42.712 25.2191 43.5969C25.2114 44.4818 25.5516 45.3343 26.1664 45.9709L33.3011 53.109C33.6177 53.4259 33.9936 53.6772 34.4074 53.8487C34.8211 54.0202 35.2647 54.1085 35.7126 54.1085C36.1605 54.1085 36.604 54.0202 37.0177 53.8487C37.4315 53.6772 37.8074 53.4259 38.124 53.109L54.8033 36.4264C55.1256 36.115 55.3827 35.7426 55.5596 35.3309C55.7365 34.9191 55.8296 34.4762 55.8335 34.0281C55.8374 33.58 55.752 33.1356 55.5823 32.7208C55.4126 32.306 55.162 31.9292 54.8451 31.6123C54.5282 31.2954 54.1514 31.0448 53.7366 30.8751C53.3218 30.7054 52.8774 30.62 52.4293 30.6239C51.9811 30.6278 51.5383 30.7209 51.1265 30.8978C50.7147 31.0747 50.3423 31.3318 50.031 31.6541Z" fill="black"/>
</svg>
